<svg width="70" height="70" viewBox="0 0 70 70" fill="none" xmlns="http://www.w3.org/2000/svg">
<g id="Done_ring_round_duotone_line" filter="url(#filter0_d_576_477)">
<circle id="Ellipse 48" cx="35" cy="35" r="26.25" fill="#7E869E" fill-opacity="0.5"/>
<path id="Line 1" d="M26.2499 29.1666L37.1747 37.3602C37.5932 37.6741 38.1828 37.6124 38.5273 37.2187L58.3333 14.5833" stroke="#9BA8AB" stroke-width="1.2" stroke-linecap="round"/>
<path id="Ellipse 47" d="M61.25 35C61.25 40.4848 59.532 45.8318 56.3372 50.29C53.1425 54.7483 48.6315 58.0939 43.4378 59.8569C38.2441 61.6199 32.6286 61.7118 27.38 60.1197C22.1314 58.5275 17.5134 55.3313 14.1745 50.98C10.8356 46.6286 8.94351 41.3407 8.76405 35.8589C8.5846 30.377 10.1268 24.9767 13.1739 20.4163C16.2211 15.8559 20.6202 12.3645 25.7534 10.4325C30.8867 8.50046 36.4961 8.22489 41.794 9.64445" stroke="#9BA8AB" stroke-width="1.2" stroke-linecap="round"/>
</g>
<defs>
<filter id="filter0_d_576_477" x="-6" y="-2" width="78" height="78" filterUnits="userSpaceOnUse" color-interpolation-filters="sRGB">
<feFlood flood-opacity="0" result="BackgroundImageFix"/>
<feColorMatrix in="SourceAlpha" type="matrix" values="0 0 0 0 0 0 0 0 0 0 0 0 0 0 0 0 0 0 127 0" result="hardAlpha"/>
<feOffset dx="-2" dy="2"/>
<feGaussianBlur stdDeviation="2"/>
<feComposite in2="hardAlpha" operator="out"/>
<feColorMatrix type="matrix" values="0 0 0 0 0 0 0 0 0 0 0 0 0 0 0 0 0 0 0.25 0"/>
<feBlend mode="normal" in2="BackgroundImageFix" result="effect1_dropShadow_576_477"/>
<feBlend mode="normal" in="SourceGraphic" in2="effect1_dropShadow_576_477" result="shape"/>
</filter>
</defs>
</svg>
