<svg width="70" height="70" viewBox="0 0 70 70" fill="none" xmlns="http://www.w3.org/2000/svg">
<g id="Group_light" filter="url(#filter0_d_576_289)">
<path id="Ellipse 46" d="M43.25 23.3333C43.25 27.8897 39.5563 31.5833 35 31.5833C30.4437 31.5833 26.75 27.8897 26.75 23.3333C26.75 18.777 30.4437 15.0833 35 15.0833C39.5563 15.0833 43.25 18.777 43.25 23.3333Z" fill="#7E869E" fill-opacity="0.5" stroke="#9BA8AB" stroke-linecap="round"/>
<path id="Ellipse 47" d="M40.406 17.0725C41.2917 16.1868 42.4051 15.5633 43.6231 15.2709C44.8411 14.9785 46.1162 15.0287 47.3075 15.4158C48.4988 15.803 49.5598 16.512 50.3732 17.4646C51.1866 18.4171 51.7208 19.576 51.9166 20.8132C52.1124 22.0504 51.9623 23.3177 51.4828 24.4749C51.0033 25.6321 50.2131 26.6341 49.1996 27.3702C48.1861 28.1063 46.9888 28.5478 45.74 28.6458C44.4913 28.7439 43.2397 28.4946 42.1238 27.9257" stroke="#9BA8AB"/>
<path id="Ellipse 49" d="M29.594 17.0725C28.7068 16.1853 27.5911 15.5612 26.3707 15.2694C25.1503 14.9777 23.873 15.0297 22.6804 15.4198C21.4878 15.8098 20.4265 16.5226 19.6144 17.4791C18.8023 18.4356 18.271 19.5984 18.0795 20.8384C17.888 22.0785 18.0438 23.3474 18.5295 24.5043C19.0153 25.6612 19.8121 26.6609 20.8314 27.3926C21.8508 28.1242 23.053 28.5592 24.3045 28.6492C25.556 28.7391 26.808 28.4807 27.9216 27.9024" stroke="#9BA8AB"/>
<path id="Rectangle 4160" d="M34.9999 36.4583C48.7244 36.4583 50.7069 49.2678 50.9932 52.9684C51.0358 53.5191 50.5939 53.9583 50.0416 53.9583H19.9583C19.406 53.9583 18.964 53.5191 19.0066 52.9684C19.293 49.2678 21.2754 36.4583 34.9999 36.4583Z" fill="#7E869E" fill-opacity="0.5" stroke="#9BA8AB" stroke-linecap="round"/>
<g id="Subtract">
<path fill-rule="evenodd" clip-rule="evenodd" d="M56.7185 47.038C56.1425 43.6555 53.7096 33.5417 45.2083 33.5417C42.1362 33.5417 39.8566 34.8624 38.1707 36.7089C45.6817 37.9571 48.8095 43.6227 50.1121 48.125H55.7699C56.3615 48.125 56.8178 47.6212 56.7185 47.038Z" fill="#7E869E" fill-opacity="0.5"/>
<path d="M56.7185 47.038L57.2114 46.9541L56.7185 47.038ZM38.1707 36.7089L37.8014 36.3718L37.181 37.0513L38.0887 37.2022L38.1707 36.7089ZM50.1121 48.125L49.6318 48.264L49.7363 48.625H50.1121V48.125ZM45.2083 34.0417C49.2177 34.0417 51.8135 36.4117 53.5048 39.2757C55.2018 42.1492 55.9413 45.4528 56.2255 47.1219L57.2114 46.9541C56.9196 45.2408 56.1547 41.7962 54.3659 38.7672C52.5715 35.7286 49.7001 33.0417 45.2083 33.0417V34.0417ZM38.5399 37.0461C40.1482 35.2846 42.3002 34.0417 45.2083 34.0417V33.0417C41.9723 33.0417 39.565 34.4402 37.8014 36.3718L38.5399 37.0461ZM38.0887 37.2022C45.325 38.4047 48.3538 43.8465 49.6318 48.264L50.5924 47.9861C49.2653 43.399 46.0384 37.5095 38.2526 36.2157L38.0887 37.2022ZM55.7699 47.625H50.1121V48.625H55.7699V47.625ZM56.2255 47.1219C56.269 47.3774 56.0751 47.625 55.7699 47.625V48.625C56.6479 48.625 57.3665 47.8651 57.2114 46.9541L56.2255 47.1219Z" fill="#9BA8AB"/>
</g>
<g id="Subtract_2">
<path fill-rule="evenodd" clip-rule="evenodd" d="M31.8293 36.7089C30.1434 34.8624 27.8638 33.5417 24.7917 33.5417C16.2904 33.5417 13.8574 43.6555 13.2815 47.038C13.1821 47.6212 13.6384 48.125 14.23 48.125H19.8879C21.1904 43.6227 24.3183 37.9571 31.8293 36.7089Z" fill="#7E869E" fill-opacity="0.5"/>
<path d="M31.8293 36.7089L31.9113 37.2022L32.819 37.0513L32.1986 36.3718L31.8293 36.7089ZM13.2815 47.038L13.7744 47.1219L13.2815 47.038ZM19.8879 48.125V48.625H20.2637L20.3682 48.264L19.8879 48.125ZM24.7917 34.0417C27.6998 34.0417 29.8518 35.2846 31.4601 37.0461L32.1986 36.3718C30.435 34.4402 28.0277 33.0417 24.7917 33.0417V34.0417ZM13.7744 47.1219C14.0586 45.4528 14.7981 42.1492 16.4951 39.2757C18.1865 36.4117 20.7823 34.0417 24.7917 34.0417V33.0417C20.2998 33.0417 17.4285 35.7286 15.6341 38.7672C13.8452 41.7962 13.0803 45.2407 12.7885 46.9541L13.7744 47.1219ZM14.23 47.625C13.9248 47.625 13.7309 47.3774 13.7744 47.1219L12.7885 46.9541C12.6334 47.8651 13.352 48.625 14.23 48.625V47.625ZM19.8879 47.625H14.23V48.625H19.8879V47.625ZM20.3682 48.264C21.6462 43.8465 24.675 38.4047 31.9113 37.2022L31.7473 36.2157C23.9616 37.5095 20.7347 43.399 19.4076 47.9861L20.3682 48.264Z" fill="#9BA8AB"/>
</g>
</g>
<defs>
<filter id="filter0_d_576_289" x="-6" y="-2" width="78" height="78" filterUnits="userSpaceOnUse" color-interpolation-filters="sRGB">
<feFlood flood-opacity="0" result="BackgroundImageFix"/>
<feColorMatrix in="SourceAlpha" type="matrix" values="0 0 0 0 0 0 0 0 0 0 0 0 0 0 0 0 0 0 127 0" result="hardAlpha"/>
<feOffset dx="-2" dy="2"/>
<feGaussianBlur stdDeviation="2"/>
<feComposite in2="hardAlpha" operator="out"/>
<feColorMatrix type="matrix" values="0 0 0 0 0 0 0 0 0 0 0 0 0 0 0 0 0 0 0.25 0"/>
<feBlend mode="normal" in2="BackgroundImageFix" result="effect1_dropShadow_576_289"/>
<feBlend mode="normal" in="SourceGraphic" in2="effect1_dropShadow_576_289" result="shape"/>
</filter>
</defs>
</svg>
