<svg width="70" height="70" viewBox="0 0 70 70" fill="none" xmlns="http://www.w3.org/2000/svg">
<g id="Home_duotone">
<path id="Rectangle 4127" d="M14.5833 37.0585C14.5833 36.0494 14.5833 35.5448 14.8049 35.1141C15.0266 34.6834 15.4372 34.3901 16.2583 33.8036L33.8374 21.247C34.3988 20.8461 34.6795 20.6456 34.9999 20.6456C35.3204 20.6456 35.6011 20.8461 36.1624 21.247L53.7415 33.8036C54.5627 34.3901 54.9733 34.6834 55.1949 35.1141C55.4166 35.5448 55.4166 36.0494 55.4166 37.0585V59.25C55.4166 60.1928 55.4166 60.6642 55.1237 60.9571C54.8308 61.25 54.3594 61.25 53.4166 61.25H16.5832C15.6404 61.25 15.169 61.25 14.8761 60.9571C14.5833 60.6642 14.5833 60.1928 14.5833 59.25V37.0585Z" fill="#7E869E"/>
<path id="Rectangle 4128" d="M8.75 37.3033C8.75 37.5702 8.75 37.7036 8.8341 37.7447C8.91819 37.7859 9.02352 37.7039 9.23418 37.5401L33.7721 18.455C34.362 17.9963 34.6569 17.7669 35 17.7669C35.3431 17.7669 35.638 17.9963 36.2279 18.455L60.7658 37.5401C60.9765 37.7039 61.0818 37.7859 61.1659 37.7447C61.25 37.7036 61.25 37.5702 61.25 37.3033V33.0615C61.25 32.5812 61.25 32.341 61.1483 32.1331C61.0466 31.9252 60.857 31.7777 60.4779 31.4828L36.2279 12.6217C35.638 12.1629 35.3431 11.9335 35 11.9335C34.6569 11.9335 34.362 12.1629 33.7721 12.6217L9.52212 31.4828C9.14295 31.7777 8.95337 31.9252 8.85168 32.1331C8.75 32.341 8.75 32.5812 8.75 33.0615V37.3033Z" fill="#222222"/>
<path id="Vector 3" d="M40.2916 43.75H29.7083C28.6037 43.75 27.7083 44.6454 27.7083 45.75V61.1C27.7083 61.1828 27.7754 61.25 27.8583 61.25H42.1416C42.2244 61.25 42.2916 61.1828 42.2916 61.1V45.75C42.2916 44.6454 41.3962 43.75 40.2916 43.75Z" fill="#222222"/>
<rect id="Rectangle 4129" x="46.6667" y="14.5833" width="5.83334" height="11.6667" rx="0.5" fill="#222222"/>
</g>
</svg>
