<svg width="71" height="70" viewBox="0 0 71 70" fill="none" xmlns="http://www.w3.org/2000/svg">
<g id="Setting_line_duotone">
<g id="Subtract">
<path fill-rule="evenodd" clip-rule="evenodd" d="M41.5134 7.63434C41.4278 6.7784 41.385 6.35044 41.0993 6.09189C40.8136 5.83334 40.3835 5.83334 39.5233 5.83334H31.4766C30.6164 5.83334 30.1863 5.83334 29.9006 6.09189C29.6149 6.35044 29.5721 6.7784 29.4865 7.63433L28.8227 14.2727C28.6593 15.9062 28.5776 16.723 28.0248 16.952C27.472 17.181 26.8367 16.6612 25.5661 15.6216L20.4016 11.3961C19.7359 10.8514 19.403 10.579 19.0181 10.5982C18.6333 10.6174 18.3292 10.9216 17.7209 11.5298L12.031 17.2197C11.4228 17.828 11.1187 18.1321 11.0995 18.5169C11.0803 18.9017 11.3526 19.2346 11.8973 19.9004L16.1237 25.066C17.1633 26.3366 17.6831 26.9719 17.4541 27.5247C17.2251 28.0775 16.4084 28.1592 14.7748 28.3225L8.13424 28.9866C7.27831 29.0722 6.85035 29.115 6.5918 29.4007C6.33325 29.6863 6.33325 30.1165 6.33325 30.9767V39.0234C6.33325 39.8836 6.33325 40.3137 6.5918 40.5994C6.85035 40.8851 7.27831 40.9278 8.13424 41.0134L14.7737 41.6774C16.4073 41.8407 17.224 41.9224 17.453 42.4752C17.682 43.028 17.1622 43.6633 16.1226 44.9339L11.8972 50.0983C11.3525 50.7641 11.0801 51.097 11.0993 51.4818C11.1185 51.8666 11.4227 52.1708 12.0309 52.779L17.7208 58.4689C18.3291 59.0772 18.6332 59.3813 19.018 59.4005C19.4029 59.4197 19.7357 59.1473 20.4015 58.6026L25.566 54.3771C26.8366 53.3376 27.4719 52.8178 28.0247 53.0467C28.5775 53.2757 28.6592 54.0925 28.8225 55.726L29.4865 62.3657C29.5721 63.2216 29.6149 63.6496 29.9006 63.9081C30.1863 64.1667 30.6164 64.1667 31.4766 64.1667H39.5233C40.3835 64.1667 40.8136 64.1667 41.0993 63.9081C41.385 63.6496 41.4278 63.2216 41.5134 62.3657L42.1774 55.7249C42.3408 54.0914 42.4225 53.2746 42.9753 53.0456C43.5281 52.8166 44.1634 53.3364 45.434 54.376L50.5983 58.6013C51.264 59.146 51.5969 59.4184 51.9817 59.3992C52.3666 59.38 52.6707 59.0758 53.2789 58.4676L58.9688 52.7777C59.5771 52.1695 59.8812 51.8653 59.9004 51.4805C59.9196 51.0957 59.6472 50.7628 59.1025 50.097L54.8781 44.9338C53.8385 43.6633 53.3188 43.028 53.5477 42.4751C53.7767 41.9223 54.5935 41.8407 56.227 41.6773L62.8656 41.0134C63.7215 40.9278 64.1495 40.8851 64.408 40.5994C64.6666 40.3137 64.6666 39.8836 64.6666 39.0234V30.9767C64.6666 30.1165 64.6666 29.6864 64.408 29.4007C64.1495 29.115 63.7215 29.0722 62.8656 28.9866L56.2259 28.3226C54.5924 28.1593 53.7756 28.0776 53.5466 27.5248C53.3177 26.972 53.8374 26.3367 54.877 25.0661L59.1024 19.9017C59.6471 19.236 59.9195 18.9031 59.9003 18.5182C59.8811 18.1334 59.577 17.8293 58.9687 17.221L53.2788 11.5311C52.6706 10.9229 52.3664 10.6188 51.9816 10.5996C51.5968 10.5804 51.2639 10.8527 50.5981 11.3974L45.4339 15.6227C44.1633 16.6623 43.528 17.1821 42.9751 16.9531C42.4223 16.7241 42.3407 15.9074 42.1773 14.2738L41.5134 7.63434Z" fill="#7E869E" fill-opacity="0.5"/>
<path d="M45.4339 15.6227L45.7505 16.0097L45.4339 15.6227ZM42.1773 14.2738L42.6748 14.2241L42.1773 14.2738ZM42.9751 16.9531L43.1665 16.4912L42.9751 16.9531ZM53.2788 11.5311L52.9253 11.8847L53.2788 11.5311ZM50.5981 11.3974L50.2815 11.0105L50.5981 11.3974ZM51.9816 10.5996L52.0065 10.1002L51.9816 10.5996ZM59.1024 19.9017L59.4894 20.2183L59.1024 19.9017ZM58.9687 17.221L59.3223 16.8675L58.9687 17.221ZM59.9003 18.5182L60.3997 18.4933L59.9003 18.5182ZM56.2259 28.3226L56.1762 28.8201L56.2259 28.3226ZM54.877 25.0661L54.49 24.7494L54.877 25.0661ZM53.5466 27.5248L54.0086 27.3334L53.5466 27.5248ZM62.8656 28.9866L62.9153 28.4891L62.8656 28.9866ZM64.408 29.4007L64.7788 29.0652L64.408 29.4007ZM62.8656 41.0134L62.8158 40.5159L62.8656 41.0134ZM64.408 40.5994L64.0373 40.2639L64.408 40.5994ZM54.8781 44.9338L54.4911 45.2505L54.8781 44.9338ZM53.5477 42.4751L53.0858 42.2838L53.5477 42.4751ZM58.9688 52.7777L58.6153 52.4242L58.9688 52.7777ZM59.1025 50.097L59.4895 49.7804L59.1025 50.097ZM59.9004 51.4805L59.401 51.4556L59.9004 51.4805ZM50.5983 58.6013L50.2816 58.9883L50.5983 58.6013ZM53.2789 58.4676L53.6325 58.8211L53.2789 58.4676ZM51.9817 59.3992L52.0066 59.8985L51.9817 59.3992ZM42.1774 55.7249L41.6799 55.6751L42.1774 55.7249ZM45.434 54.376L45.1174 54.763L45.434 54.376ZM42.9753 53.0456L43.1666 53.5075L42.9753 53.0456ZM41.5134 62.3657L42.0109 62.4154L41.5134 62.3657ZM41.0993 63.9081L41.4348 64.2789L41.0993 63.9081ZM29.9006 63.9081L29.5651 64.2789L29.9006 63.9081ZM25.566 54.3771L25.8826 54.7641L25.566 54.3771ZM28.0247 53.0467L27.8333 53.5087L28.0247 53.0467ZM17.7208 58.4689L17.3672 58.8225L17.7208 58.4689ZM20.4015 58.6026L20.0849 58.2156L20.4015 58.6026ZM19.018 59.4005L19.0429 58.9011L19.018 59.4005ZM11.8972 50.0983L11.5102 49.7817L11.8972 50.0983ZM12.0309 52.779L12.3845 52.4255L12.0309 52.779ZM11.0993 51.4818L11.5987 51.4569L11.0993 51.4818ZM14.7737 41.6774L14.724 42.1749L14.7737 41.6774ZM16.1226 44.9339L16.5096 45.2506L16.1226 44.9339ZM17.453 42.4752L16.9911 42.6666L17.453 42.4752ZM6.5918 40.5994L6.22107 40.9349L6.5918 40.5994ZM8.13424 28.9866L8.184 29.4841L8.13424 28.9866ZM6.5918 29.4007L6.96253 29.7362L6.5918 29.4007ZM16.1237 25.066L15.7367 25.3826L16.1237 25.066ZM14.7748 28.3225L14.7251 27.825L14.7748 28.3225ZM17.4541 27.5247L16.9922 27.3333L17.4541 27.5247ZM11.8973 19.9004L12.2843 19.5838L11.8973 19.9004ZM11.0995 18.5169L10.6001 18.492L11.0995 18.5169ZM20.4016 11.3961L20.7182 11.0091L20.4016 11.3961ZM17.7209 11.5298L17.3674 11.1763L17.7209 11.5298ZM19.0181 10.5982L19.0431 11.0976L19.0181 10.5982ZM28.8227 14.2727L28.3251 14.2229L28.8227 14.2727ZM25.5661 15.6216L25.2495 16.0086L25.5661 15.6216ZM28.0248 16.952L27.8335 16.49L28.0248 16.952ZM41.5134 7.63434L41.0158 7.68409L41.5134 7.63434ZM41.0993 6.09189L40.7638 6.46262L41.0993 6.09189ZM29.4865 7.63433L29.984 7.68409L29.4865 7.63433ZM29.9006 6.09189L29.5651 5.72116L29.9006 6.09189ZM31.4766 6.33334H39.5233V5.33334H31.4766V6.33334ZM29.3202 14.3224L29.984 7.68409L28.989 7.58458L28.3251 14.2229L29.3202 14.3224ZM20.085 11.7831L25.2495 16.0086L25.8827 15.2346L20.7182 11.0091L20.085 11.7831ZM12.3846 17.5733L18.0745 11.8834L17.3674 11.1763L11.6775 16.8661L12.3846 17.5733ZM16.5107 24.7493L12.2843 19.5838L11.5104 20.217L15.7367 25.3826L16.5107 24.7493ZM8.184 29.4841L14.8246 28.82L14.7251 27.825L8.08449 28.4891L8.184 29.4841ZM6.83325 39.0234V30.9767H5.83325V39.0234H6.83325ZM14.8235 41.1799L8.18399 40.5159L8.08449 41.511L14.724 42.1749L14.8235 41.1799ZM12.2842 50.415L16.5096 45.2506L15.7357 44.6173L11.5102 49.7817L12.2842 50.415ZM18.0744 58.1154L12.3845 52.4255L11.6774 53.1326L17.3672 58.8225L18.0744 58.1154ZM25.2494 53.9902L20.0849 58.2156L20.7181 58.9896L25.8826 54.7641L25.2494 53.9902ZM29.984 62.3159L29.32 55.6763L28.325 55.7758L28.989 62.4154L29.984 62.3159ZM39.5233 63.6667H31.4766V64.6667H39.5233V63.6667ZM41.6799 55.6751L41.0158 62.3159L42.0109 62.4154L42.6749 55.7746L41.6799 55.6751ZM50.9149 58.2143L45.7506 53.989L45.1174 54.763L50.2816 58.9883L50.9149 58.2143ZM58.6153 52.4242L52.9254 58.114L53.6325 58.8211L59.3224 53.1313L58.6153 52.4242ZM54.4911 45.2505L58.7155 50.4136L59.4895 49.7804L55.2651 44.6172L54.4911 45.2505ZM62.8158 40.5159L56.1773 41.1798L56.2768 42.1748L62.9153 41.511L62.8158 40.5159ZM64.1666 30.9767V39.0234H65.1666V30.9767H64.1666ZM56.1762 28.8201L62.8158 29.4841L62.9153 28.4891L56.2757 27.8251L56.1762 28.8201ZM58.7154 19.5851L54.49 24.7494L55.264 25.3827L59.4894 20.2183L58.7154 19.5851ZM52.9253 11.8847L58.6151 17.5746L59.3223 16.8675L53.6324 11.1776L52.9253 11.8847ZM45.7505 16.0097L50.9147 11.7844L50.2815 11.0105L45.1172 15.2358L45.7505 16.0097ZM41.0158 7.68409L41.6798 14.3236L42.6748 14.2241L42.0109 7.58458L41.0158 7.68409ZM45.1172 15.2358C44.4688 15.7663 44.0261 16.1268 43.6787 16.3345C43.3319 16.5419 43.2178 16.5124 43.1665 16.4912L42.7838 17.4151C43.2854 17.6228 43.7652 17.4479 44.1919 17.1928C44.618 16.938 45.1283 16.5188 45.7505 16.0097L45.1172 15.2358ZM41.6798 14.3236C41.7598 15.1235 41.8242 15.7807 41.9453 16.2622C42.0666 16.7443 42.2823 17.2073 42.7838 17.4151L43.1665 16.4912C43.1152 16.47 43.0136 16.41 42.9151 16.0182C42.8163 15.6257 42.7582 15.0578 42.6748 14.2241L41.6798 14.3236ZM53.6324 11.1776C53.3377 10.8829 53.0835 10.6273 52.8519 10.4486C52.609 10.2612 52.3401 10.1168 52.0065 10.1002L51.9567 11.0989C52.0079 11.1015 52.0835 11.1188 52.241 11.2403C52.4097 11.3705 52.6117 11.5711 52.9253 11.8847L53.6324 11.1776ZM50.9147 11.7844C51.258 11.5036 51.4789 11.3241 51.6598 11.2113C51.8285 11.1061 51.9054 11.0964 51.9567 11.0989L52.0065 10.1002C51.6729 10.0835 51.391 10.2004 51.1306 10.3628C50.8824 10.5175 50.604 10.7466 50.2815 11.0105L50.9147 11.7844ZM59.4894 20.2183C59.7533 19.8958 59.9823 19.6174 60.1371 19.3692C60.2994 19.1089 60.4163 18.8269 60.3997 18.4933L59.4009 18.5431C59.4035 18.5944 59.3938 18.6713 59.2885 18.8401C59.1757 19.0209 58.9962 19.2419 58.7154 19.5851L59.4894 20.2183ZM58.6151 17.5746C58.9287 17.8882 59.1293 18.0901 59.2595 18.2589C59.381 18.4163 59.3983 18.4919 59.4009 18.5431L60.3997 18.4933C60.383 18.1597 60.2387 17.8908 60.0512 17.648C59.8725 17.4164 59.6169 17.1621 59.3223 16.8675L58.6151 17.5746ZM56.2757 27.8251C55.442 27.7417 54.8741 27.6836 54.4816 27.5848C54.0897 27.4863 54.0298 27.3847 54.0086 27.3334L53.0847 27.7161C53.2924 28.2177 53.7554 28.4333 54.2376 28.5546C54.7191 28.6758 55.3763 28.7401 56.1762 28.8201L56.2757 27.8251ZM54.49 24.7494C53.981 25.3716 53.5618 25.8819 53.307 26.308C53.0518 26.7347 52.8769 27.2146 53.0847 27.7161L54.0086 27.3334C53.9873 27.2822 53.9579 27.168 54.1652 26.8212C54.373 26.4738 54.7335 26.0311 55.264 25.3827L54.49 24.7494ZM65.1666 30.9767C65.1666 30.5599 65.1676 30.1994 65.1302 29.9093C65.091 29.605 65.0029 29.3128 64.7788 29.0652L64.0373 29.7362C64.0717 29.7742 64.1129 29.8399 64.1384 30.0371C64.1656 30.2485 64.1666 30.5332 64.1666 30.9767H65.1666ZM62.8158 29.4841C63.2571 29.5282 63.5403 29.5575 63.7479 29.6057C63.9416 29.6506 64.0029 29.6981 64.0373 29.7362L64.7788 29.0652C64.5546 28.8175 64.2726 28.7008 63.9738 28.6315C63.6888 28.5654 63.33 28.5305 62.9153 28.4891L62.8158 29.4841ZM62.9153 41.511C63.33 41.4695 63.6888 41.4346 63.9738 41.3685C64.2726 41.2992 64.5546 41.1825 64.7788 40.9349L64.0373 40.2639C64.0029 40.3019 63.9416 40.3494 63.7479 40.3944C63.5403 40.4425 63.2571 40.4718 62.8158 40.5159L62.9153 41.511ZM64.1666 39.0234C64.1666 39.4668 64.1656 39.7515 64.1384 39.9629C64.1129 40.1601 64.0717 40.2258 64.0373 40.2639L64.7788 40.9349C65.0029 40.6872 65.091 40.395 65.1302 40.0907C65.1676 39.8006 65.1666 39.4401 65.1666 39.0234H64.1666ZM55.2651 44.6172C54.7346 43.9688 54.3741 43.5261 54.1663 43.1787C53.959 42.8319 53.9884 42.7177 54.0097 42.6665L53.0858 42.2838C52.878 42.7854 53.0529 43.2652 53.3081 43.6919C53.5629 44.118 53.9821 44.6283 54.4911 45.2505L55.2651 44.6172ZM56.1773 41.1798C55.3774 41.2598 54.7202 41.3242 54.2387 41.4453C53.7565 41.5666 53.2935 41.7822 53.0858 42.2838L54.0097 42.6665C54.0309 42.6152 54.0908 42.5136 54.4827 42.4151C54.8752 42.3163 55.4431 42.2582 56.2768 42.1748L56.1773 41.1798ZM59.3224 53.1313C59.6171 52.8366 59.8727 52.5824 60.0514 52.3508C60.2388 52.1079 60.3831 51.839 60.3998 51.5054L59.401 51.4556C59.3985 51.5068 59.3812 51.5824 59.2597 51.7399C59.1294 51.9086 58.9289 52.1106 58.6153 52.4242L59.3224 53.1313ZM58.7155 50.4136C58.9964 50.7569 59.1759 50.9778 59.2887 51.1587C59.3939 51.3274 59.4036 51.4043 59.401 51.4556L60.3998 51.5054C60.4164 51.1718 60.2995 50.8899 60.1372 50.6295C59.9824 50.3813 59.7534 50.1029 59.4895 49.7804L58.7155 50.4136ZM50.2816 58.9883C50.6042 59.2522 50.8826 59.4812 51.1308 59.636C51.3911 59.7983 51.673 59.9152 52.0066 59.8985L51.9568 58.8998C51.9056 58.9023 51.8286 58.8927 51.6599 58.7874C51.479 58.6746 51.2581 58.4951 50.9149 58.2143L50.2816 58.9883ZM52.9254 58.114C52.6118 58.4276 52.4098 58.6282 52.2411 58.7584C52.0836 58.8799 52.0081 58.8972 51.9568 58.8998L52.0066 59.8985C52.3402 59.8819 52.6091 59.7376 52.852 59.5501C53.0836 59.3714 53.3378 59.1158 53.6325 58.8211L52.9254 58.114ZM42.6749 55.7746C42.7583 54.941 42.8164 54.3731 42.9152 53.9805C43.0138 53.5887 43.1154 53.5288 43.1666 53.5075L42.7839 52.5837C42.2824 52.7914 42.0667 53.2544 41.9454 53.7366C41.8243 54.218 41.7599 54.8753 41.6799 55.6751L42.6749 55.7746ZM45.7506 53.989C45.1285 53.48 44.6182 53.0608 44.1921 52.806C43.7653 52.5508 43.2855 52.3759 42.7839 52.5837L43.1666 53.5075C43.2179 53.4863 43.3321 53.4568 43.6788 53.6642C44.0263 53.872 44.4689 54.2324 45.1174 54.763L45.7506 53.989ZM39.5233 64.6667C39.94 64.6667 40.3005 64.6676 40.5906 64.6303C40.8949 64.591 41.1871 64.503 41.4348 64.2789L40.7638 63.5374C40.7257 63.5718 40.66 63.613 40.4628 63.6385C40.2514 63.6657 39.9667 63.6667 39.5233 63.6667V64.6667ZM41.0158 62.3159C40.9717 62.7572 40.9424 63.0403 40.8943 63.248C40.8493 63.4417 40.8018 63.503 40.7638 63.5374L41.4348 64.2789C41.6824 64.0547 41.7991 63.7727 41.8684 63.4739C41.9345 63.1889 41.9694 62.8301 42.0109 62.4154L41.0158 62.3159ZM28.989 62.4154C29.0304 62.8301 29.0653 63.1889 29.1314 63.4739C29.2007 63.7727 29.3174 64.0547 29.5651 64.2789L30.2361 63.5374C30.198 63.503 30.1505 63.4417 30.1056 63.248C30.0574 63.0403 30.0281 62.7572 29.984 62.3159L28.989 62.4154ZM31.4766 63.6667C31.0331 63.6667 30.7484 63.6657 30.537 63.6385C30.3398 63.613 30.2741 63.5718 30.2361 63.5374L29.5651 64.2789C29.8127 64.503 30.1049 64.591 30.4092 64.6303C30.6993 64.6676 31.0598 64.6667 31.4766 64.6667V63.6667ZM25.8826 54.7641C26.531 54.2336 26.9737 53.8731 27.3211 53.6654C27.6679 53.458 27.7821 53.4875 27.8333 53.5087L28.216 52.5848C27.7145 52.3771 27.2346 52.5519 26.8079 52.8071C26.3818 53.0619 25.8715 53.4811 25.2494 53.9902L25.8826 54.7641ZM29.32 55.6763C29.2401 54.8764 29.1757 54.2192 29.0545 53.7377C28.9332 53.2555 28.7176 52.7926 28.216 52.5848L27.8333 53.5087C27.8846 53.5299 27.9862 53.5898 28.0848 53.9817C28.1835 54.3742 28.2416 54.9421 28.325 55.7758L29.32 55.6763ZM17.3672 58.8225C17.6619 59.1171 17.9161 59.3727 18.1477 59.5514C18.3906 59.7389 18.6595 59.8832 18.9931 59.8999L19.0429 58.9011C18.9917 58.8986 18.9161 58.8813 18.7587 58.7598C18.5899 58.6295 18.3879 58.4289 18.0744 58.1154L17.3672 58.8225ZM20.0849 58.2156C19.7416 58.4965 19.5207 58.676 19.3399 58.7887C19.1711 58.894 19.0942 58.9037 19.0429 58.9011L18.9931 59.8999C19.3267 59.9165 19.6086 59.7996 19.869 59.6373C20.1172 59.4825 20.3956 59.2535 20.7181 58.9896L20.0849 58.2156ZM11.5102 49.7817C11.2463 50.1043 11.0173 50.3826 10.8625 50.6309C10.7002 50.8912 10.5833 51.1731 10.6 51.5067L11.5987 51.4569C11.5962 51.4057 11.6059 51.3287 11.7111 51.16C11.8239 50.9791 12.0034 50.7582 12.2842 50.415L11.5102 49.7817ZM12.3845 52.4255C12.0709 52.1119 11.8703 51.9099 11.7401 51.7412C11.6186 51.5837 11.6013 51.5082 11.5987 51.4569L10.6 51.5067C10.6166 51.8403 10.761 52.1092 10.9484 52.3521C11.1271 52.5837 11.3827 52.8379 11.6774 53.1326L12.3845 52.4255ZM14.724 42.1749C15.5576 42.2583 16.1255 42.3164 16.5181 42.4152C16.9099 42.5137 16.9698 42.6153 16.9911 42.6666L17.9149 42.2839C17.7072 41.7823 17.2442 41.5667 16.7621 41.4454C16.2806 41.3242 15.6233 41.2599 14.8235 41.1799L14.724 42.1749ZM16.5096 45.2506C17.0186 44.6284 17.4379 44.1181 17.6927 43.692C17.9478 43.2653 18.1227 42.7854 17.9149 42.2839L16.9911 42.6666C17.0123 42.7178 17.0418 42.832 16.8344 43.1788C16.6267 43.5262 16.2662 43.9689 15.7357 44.6173L16.5096 45.2506ZM5.83325 39.0234C5.83325 39.4401 5.83228 39.8006 5.86967 40.0907C5.90889 40.395 5.99696 40.6872 6.22107 40.9349L6.96253 40.2639C6.9281 40.2258 6.88689 40.1601 6.86147 39.9629C6.83422 39.7515 6.83325 39.4668 6.83325 39.0234H5.83325ZM8.18399 40.5159C7.74273 40.4718 7.45958 40.4425 7.25194 40.3944C7.05821 40.3494 6.99696 40.3019 6.96253 40.2639L6.22107 40.9349C6.44519 41.1825 6.7272 41.2992 7.02606 41.3685C7.31103 41.4346 7.66983 41.4695 8.08449 41.511L8.18399 40.5159ZM8.08449 28.4891C7.66983 28.5305 7.31103 28.5654 7.02606 28.6315C6.7272 28.7008 6.44519 28.8175 6.22107 29.0652L6.96253 29.7362C6.99696 29.6981 7.05821 29.6506 7.25194 29.6057C7.45958 29.5575 7.74273 29.5282 8.184 29.4841L8.08449 28.4891ZM6.83325 30.9767C6.83325 30.5332 6.83422 30.2485 6.86147 30.0371C6.88689 29.8399 6.9281 29.7742 6.96253 29.7362L6.22107 29.0652C5.99696 29.3128 5.90889 29.605 5.86967 29.9093C5.83228 30.1994 5.83325 30.5599 5.83325 30.9767H6.83325ZM15.7367 25.3826C16.2673 26.031 16.6278 26.4737 16.8355 26.8211C17.0429 27.1679 17.0134 27.2821 16.9922 27.3333L17.916 27.716C18.1238 27.2145 17.9489 26.7346 17.6938 26.3079C17.439 25.8818 17.0197 25.3715 16.5107 24.7493L15.7367 25.3826ZM14.8246 28.82C15.6244 28.7401 16.2817 28.6757 16.7632 28.5545C17.2453 28.4332 17.7083 28.2176 17.916 27.716L16.9922 27.3333C16.9709 27.3846 16.911 27.4862 16.5192 27.5848C16.1266 27.6835 15.5587 27.7416 14.7251 27.825L14.8246 28.82ZM11.6775 16.8661C11.3828 17.1608 11.1272 17.415 10.9485 17.6466C10.7611 17.8895 10.6167 18.1584 10.6001 18.492L11.5988 18.5418C11.6014 18.4906 11.6187 18.415 11.7402 18.2575C11.8704 18.0888 12.071 17.8868 12.3846 17.5733L11.6775 16.8661ZM12.2843 19.5838C12.0035 19.2405 11.824 19.0196 11.7112 18.8387C11.606 18.67 11.5963 18.5931 11.5988 18.5418L10.6001 18.492C10.5835 18.8256 10.7003 19.1075 10.8627 19.3679C11.0174 19.6161 11.2465 19.8945 11.5104 20.217L12.2843 19.5838ZM20.7182 11.0091C20.3957 10.7452 20.1173 10.5162 19.8691 10.3614C19.6088 10.1991 19.3268 10.0822 18.9932 10.0989L19.0431 11.0976C19.0943 11.0951 19.1712 11.1048 19.34 11.21C19.5208 11.3228 19.7418 11.5023 20.085 11.7831L20.7182 11.0091ZM18.0745 11.8834C18.3881 11.5698 18.59 11.3692 18.7588 11.239C18.9162 11.1175 18.9918 11.1002 19.0431 11.0976L18.9932 10.0989C18.6597 10.1155 18.3907 10.2599 18.1479 10.4473C17.9163 10.626 17.6621 10.8816 17.3674 11.1763L18.0745 11.8834ZM28.3251 14.2229C28.2418 15.0566 28.1836 15.6245 28.0849 16.0171C27.9863 16.4089 27.8847 16.4688 27.8335 16.49L28.2161 17.4139C28.7177 17.2062 28.9334 16.7432 29.0547 16.261C29.1758 15.7796 29.2402 15.1223 29.3202 14.3224L28.3251 14.2229ZM25.2495 16.0086C25.8716 16.5176 26.3819 16.9368 26.808 17.1916C27.2347 17.4468 27.7146 17.6217 28.2161 17.4139L27.8335 16.49C27.7822 16.5113 27.668 16.5407 27.3212 16.3334C26.9738 16.1256 26.5312 15.7652 25.8827 15.2346L25.2495 16.0086ZM39.5233 6.33334C39.9667 6.33334 40.2514 6.33431 40.4628 6.36156C40.66 6.38698 40.7257 6.42819 40.7638 6.46262L41.4348 5.72116C41.1871 5.49705 40.8949 5.40898 40.5906 5.36976C40.3005 5.33237 39.94 5.33334 39.5233 5.33334V6.33334ZM42.0109 7.58458C41.9694 7.16992 41.9345 6.81112 41.8684 6.52616C41.7991 6.22729 41.6824 5.94528 41.4348 5.72116L40.7638 6.46262C40.8018 6.49705 40.8493 6.5583 40.8943 6.75203C40.9424 6.95967 40.9717 7.24282 41.0158 7.68409L42.0109 7.58458ZM31.4766 5.33334C31.0598 5.33334 30.6993 5.33237 30.4092 5.36976C30.1049 5.40898 29.8127 5.49705 29.5651 5.72116L30.2361 6.46262C30.2741 6.42819 30.3398 6.38698 30.537 6.36156C30.7484 6.33431 31.0331 6.33334 31.4766 6.33334V5.33334ZM29.984 7.68409C30.0281 7.24282 30.0574 6.95967 30.1056 6.75203C30.1505 6.5583 30.198 6.49705 30.2361 6.46262L29.5651 5.72116C29.3174 5.94528 29.2007 6.22729 29.1314 6.52616C29.0653 6.81112 29.0304 7.16992 28.989 7.58458L29.984 7.68409Z" fill="#9BA8AB"/>
</g>
<circle id="Ellipse 5" cx="35.5" cy="35" r="8.75" fill="#9BA8AB"/>
</g>
</svg>
